<svg width="24" height="24" viewBox="0 0 24 24" fill="none" xmlns="http://www.w3.org/2000/svg">
<path fill-rule="evenodd" clip-rule="evenodd" d="M15.3403 11.6697C15.6332 11.9626 15.6332 12.4374 15.3403 12.7303L11.3403 16.7303C11.1997 16.871 11.0089 16.95 10.81 16.95C10.6111 16.95 10.4203 16.871 10.2797 16.7303L8.77967 15.2303C8.48677 14.9374 8.48677 14.4626 8.77967 14.1697C9.07256 13.8768 9.54743 13.8768 9.84033 14.1697L10.81 15.1394L14.2797 11.6697C14.5726 11.3768 15.0474 11.3768 15.3403 11.6697Z" fill="black"/>
<path fill-rule="evenodd" clip-rule="evenodd" d="M9.92882 1.24988C9.95338 1.24995 9.97713 1.25001 10 1.25001H14C14.0229 1.25001 14.0466 1.24995 14.0712 1.24988C14.5142 1.24862 15.222 1.24661 15.791 1.62598C16.4753 2.08218 16.75 2.90097 16.75 4.00001C16.75 4.02288 16.7501 4.04663 16.7501 4.0712C16.7514 4.51418 16.7534 5.22199 16.374 5.79104C15.9178 6.47535 15.099 6.75001 14 6.75001H10C9.97713 6.75001 9.95338 6.75008 9.92882 6.75015C9.48584 6.75141 8.77803 6.75342 8.20897 6.37405C7.52467 5.91785 7.25 5.09906 7.25 4.00001C7.25 2.90097 7.52467 2.08218 8.20897 1.62598C8.77803 1.24661 9.48584 1.24862 9.92882 1.24988ZM9.04103 2.87405C8.97533 2.91785 8.75 3.09906 8.75 4.00001C8.75 4.90097 8.97533 5.08218 9.04103 5.12598C9.19042 5.22557 9.43524 5.25001 10 5.25001H14C14.901 5.25001 15.0822 5.02468 15.126 4.95899C15.2256 4.8096 15.25 4.56478 15.25 4.00001C15.25 3.09906 15.0247 2.91785 14.959 2.87405C14.8096 2.77446 14.5648 2.75001 14 2.75001H10C9.43524 2.75001 9.19042 2.77446 9.04103 2.87405Z" fill="black"/>
<path fill-rule="evenodd" clip-rule="evenodd" d="M8.74891 3.97953C8.77126 4.39314 8.45409 4.74656 8.04048 4.76892C6.43434 4.85573 5.43333 5.19321 4.80215 5.87644C4.1626 6.56873 3.75 7.7808 3.75 10V16C3.75 17.9867 4.01132 19.2311 4.68943 20.0061C5.34587 20.7563 6.56467 21.25 9 21.25H15C17.4353 21.25 18.6541 20.7563 19.3106 20.0061C19.9887 19.2311 20.25 17.9867 20.25 16V10C20.25 7.77529 19.8372 6.5638 19.1982 5.87307C18.5674 5.19124 17.5669 4.8558 15.9595 4.76892C15.5459 4.74656 15.2287 4.39314 15.2511 3.97953C15.2735 3.56592 15.6269 3.24874 16.0405 3.2711C17.7631 3.36422 19.2626 3.73378 20.2993 4.85445C21.3278 5.96621 21.75 7.65472 21.75 10V16C21.75 18.0133 21.5113 19.7689 20.4394 20.9939C19.3459 22.2437 17.5647 22.75 15 22.75H9C6.43533 22.75 4.65413 22.2437 3.56057 20.9939C2.48868 19.7689 2.25 18.0133 2.25 16V10C2.25 7.65922 2.6724 5.97129 3.70035 4.85858C4.73667 3.73681 6.23566 3.36428 7.95952 3.2711C8.37313 3.24874 8.72655 3.56592 8.74891 3.97953Z" fill="black"/>
</svg>
