<svg width="24" height="24" viewBox="0 0 24 24" fill="none" xmlns="http://www.w3.org/2000/svg">
<path fill-rule="evenodd" clip-rule="evenodd" d="M18.0168 2.75C17.3176 2.75174 16.75 3.32012 16.75 4.01V10.25H19.42C20.0494 10.25 20.4903 10.054 20.7722 9.77217C21.054 9.49029 21.25 9.04943 21.25 8.42V6C21.25 5.10967 20.8868 4.2965 20.2979 3.69852C19.7158 3.11742 18.9052 2.75912 18.0168 2.75ZM15.25 4.01C15.25 2.48094 16.5007 1.25 18.02 1.25H18.0269L18.0269 1.25003C19.3161 1.26186 20.5033 1.78264 21.3603 2.63967L21.364 2.64333L21.364 2.64334C22.214 3.50519 22.75 4.69126 22.75 6V8.42C22.75 9.37057 22.446 10.2197 21.8328 10.8328C21.2197 11.446 20.3705 11.75 19.42 11.75H16C15.5858 11.75 15.25 11.4142 15.25 11V4.01Z" fill="black"/>
<path fill-rule="evenodd" clip-rule="evenodd" d="M2.30736 2.68106C3.11215 1.74912 4.34646 1.25 6 1.25H18C18.4142 1.25 18.75 1.58579 18.75 2C18.75 2.41421 18.4142 2.75 18 2.75C17.3142 2.75 16.75 3.31421 16.75 4V21C16.75 22.4417 15.1035 23.2564 13.9529 22.4022L13.9506 22.4004L12.2327 21.1145C12.1465 21.0482 12.0086 21.0521 11.9203 21.1403L10.2404 22.8203C9.55746 23.5032 8.44254 23.5032 7.75965 22.8203L7.75805 22.8187L6.09967 21.1503C6.09952 21.1502 6.09983 21.1505 6.09967 21.1503C6.00044 21.0515 5.85768 21.0467 5.76 21.12L4.05287 22.3978C4.0522 22.3983 4.05153 22.3988 4.05086 22.3993C2.89267 23.2744 1.25 22.4434 1.25 21V6C1.25 4.79713 1.52033 3.59244 2.30736 2.68106ZM15.5517 2.75H6C4.65354 2.75 3.88785 3.14588 3.44264 3.66144C2.97967 4.19756 2.75 4.99287 2.75 6V21C2.75 21.2157 2.98538 21.3247 3.14708 21.2022L3.15054 21.1996L4.86 19.92C5.56216 19.3934 6.53959 19.4689 7.16034 20.0897L7.16193 20.0913L8.82031 21.7597C8.82016 21.7595 8.82046 21.7598 8.82031 21.7597C8.91747 21.8563 9.08274 21.8566 9.17969 21.7597L10.8597 20.0797C11.4701 19.4693 12.4493 19.3922 13.1428 19.9221L14.8471 21.1978C14.8474 21.198 14.8477 21.1982 14.8479 21.1984C15.0173 21.3232 15.25 21.1979 15.25 21V4C15.25 3.55044 15.3589 3.12542 15.5517 2.75Z" fill="black"/>
<path fill-rule="evenodd" clip-rule="evenodd" d="M5.25 9C5.25 8.58579 5.58579 8.25 6 8.25H12C12.4142 8.25 12.75 8.58579 12.75 9C12.75 9.41421 12.4142 9.75 12 9.75H6C5.58579 9.75 5.25 9.41421 5.25 9Z" fill="black"/>
<path fill-rule="evenodd" clip-rule="evenodd" d="M6 13C6 12.5858 6.33579 12.25 6.75 12.25H11.25C11.6642 12.25 12 12.5858 12 13C12 13.4142 11.6642 13.75 11.25 13.75H6.75C6.33579 13.75 6 13.4142 6 13Z" fill="black"/>
</svg>
