<svg width="24" height="24" viewBox="0 0 24 24" fill="none" xmlns="http://www.w3.org/2000/svg">
<path fill-rule="evenodd" clip-rule="evenodd" d="M12.9245 4.25738C13.7149 4.89874 14.207 5.9363 14.3523 7.62434C14.3879 8.03702 14.7512 8.34276 15.1639 8.30722C15.5766 8.27169 15.8823 7.90833 15.8468 7.49564C15.6822 5.58368 15.0942 4.08624 13.8696 3.0926C12.6657 2.11574 10.9832 1.73999 8.88957 1.73999H8.75957C6.45039 1.73999 4.63862 2.19778 3.42299 3.41341C2.20735 4.62904 1.74957 6.44081 1.74957 8.74999L1.74957 15.27C1.74957 17.5792 2.20735 19.3909 3.42299 20.6066C4.63862 21.8222 6.45039 22.28 8.75957 22.28H8.88957C10.968 22.28 12.6404 21.9093 13.8418 20.9481C15.0649 19.9697 15.6607 18.4941 15.8363 16.6096C15.8748 16.1972 15.5716 15.8317 15.1592 15.7932C14.7468 15.7548 14.3812 16.058 14.3428 16.4704C14.1885 18.1259 13.6942 19.1453 12.9048 19.7768C12.0937 20.4257 10.8311 20.78 8.88957 20.78H8.75957C6.59874 20.78 5.28051 20.3428 4.48365 19.5459C3.68678 18.749 3.24957 17.4308 3.24957 15.27L3.24957 8.74999C3.24957 6.58917 3.68678 5.27094 4.48365 4.47407C5.28051 3.6772 6.59874 3.23999 8.75957 3.23999H8.88957C10.8459 3.23999 12.1134 3.59924 12.9245 4.25738Z" fill="black"/>
<path fill-rule="evenodd" clip-rule="evenodd" d="M21.1299 12C21.1299 11.5858 20.7941 11.25 20.3799 11.25L8.99988 11.25C8.58567 11.25 8.24988 11.5858 8.24988 12C8.24988 12.4142 8.58567 12.75 8.99988 12.75L20.3799 12.75C20.7941 12.75 21.1299 12.4142 21.1299 12Z" fill="black"/>
<path fill-rule="evenodd" clip-rule="evenodd" d="M17.6197 8.11969C17.3268 8.41259 17.3268 8.88746 17.6197 9.18035L20.4393 12L17.6197 14.8197C17.3268 15.1126 17.3268 15.5875 17.6197 15.8804C17.9126 16.1732 18.3874 16.1732 18.6803 15.8804L22.0303 12.5304C22.3232 12.2375 22.3232 11.7626 22.0303 11.4697L18.6803 8.11969C18.3874 7.8268 17.9126 7.8268 17.6197 8.11969Z" fill="black"/>
</svg>
