<svg width="24" height="24" viewBox="0 0 24 24" fill="none" xmlns="http://www.w3.org/2000/svg">
<path fill-rule="evenodd" clip-rule="evenodd" d="M3.63378 2.98969C3.13273 3.29478 2.71997 3.96069 2.71997 5.09035V19.9304C2.71997 20.6422 3.32011 21.2504 4.07997 21.2504H11.75V7.41035C11.75 7.05474 11.6122 6.61425 11.3505 6.19901C11.0891 5.78424 10.7478 5.46436 10.4202 5.30396L5.98021 3.12397C5.98012 3.12392 5.9803 3.12401 5.98021 3.12397C4.94012 2.61488 4.13846 2.68239 3.63378 2.98969ZM2.85366 1.70851C3.92144 1.05834 5.28996 1.11597 6.63973 1.77674L11.0798 3.95675C11.0797 3.9567 11.0799 3.9568 11.0798 3.95675C11.712 4.26637 12.2459 4.80656 12.6195 5.3992C12.9927 5.99146 13.25 6.70597 13.25 7.41035V22.0004C13.25 22.4146 12.9142 22.7504 12.5 22.7504H4.07997C2.51983 22.7504 1.21997 21.4985 1.21997 19.9304V5.09035C1.21997 3.60002 1.78221 2.36093 2.85366 1.70851Z" fill="black"/>
<path fill-rule="evenodd" clip-rule="evenodd" d="M12.0281 9.83702C12.204 9.69462 12.4347 9.63925 12.6561 9.68635L13.1343 9.78809L17.6323 10.7977L17.6342 10.7981L19.6609 11.2474C19.6607 11.2473 19.6612 11.2475 19.6609 11.2474C20.3874 11.4071 21.1483 11.6939 21.7351 12.2856C22.3314 12.887 22.6667 13.7194 22.7082 14.8056C22.7203 14.906 22.7201 14.996 22.72 15.0477C22.72 15.0521 22.72 15.0561 22.72 15.0599V18.8399C22.72 20.021 22.4477 21.0429 21.7303 21.7603C21.013 22.4776 19.9911 22.7499 18.81 22.7499H12.5C12.0858 22.7499 11.75 22.4141 11.75 21.9999V10.4199C11.75 10.1936 11.8522 9.97942 12.0281 9.83702ZM13.25 11.3514L17.3058 12.2617L17.3077 12.2622L19.3377 12.7122L19.3391 12.7125C19.9324 12.8428 20.3719 13.0412 20.6699 13.3418C20.9511 13.6254 21.1849 14.0796 21.2104 14.8934C21.2113 14.9246 21.2143 14.9557 21.2191 14.9866C21.2192 14.9877 21.2193 14.9892 21.2193 14.9912C21.2196 14.9967 21.2198 15.0045 21.2199 15.0163L21.22 15.0599V18.8399C21.22 19.8189 20.9923 20.3769 20.6697 20.6996C20.347 21.0223 19.7889 21.2499 18.81 21.2499H13.25V11.3514Z" fill="black"/>
<path fill-rule="evenodd" clip-rule="evenodd" d="M11.7664 13.8439C11.8526 13.4388 12.2509 13.1802 12.6561 13.2664L13.1343 13.3682L17.6323 14.3778L17.6342 14.3782L19.6609 14.8275C19.6607 14.8274 19.6612 14.8275 19.6609 14.8275C20.3874 14.9872 21.1483 15.274 21.7351 15.8657C22.3314 16.467 22.6667 17.2994 22.7082 18.3856C22.7203 18.4861 22.7201 18.5761 22.72 18.6278C22.72 18.6321 22.72 18.6362 22.72 18.64C22.72 19.0542 22.3842 19.39 21.97 19.39C21.5558 19.39 21.22 19.0542 21.22 18.64L21.2199 18.5964C21.2198 18.5846 21.2196 18.5767 21.2194 18.5712C21.2193 18.5693 21.2192 18.5678 21.2191 18.5667C21.2143 18.5358 21.2113 18.5047 21.2104 18.4734C21.1849 17.6597 20.9512 17.2054 20.6699 16.9218C20.3719 16.6213 19.9324 16.4229 19.3391 16.2925L19.3377 16.2922L17.3077 15.8422L17.3058 15.8418L12.8098 14.8327L12.3439 14.7336C11.9388 14.6474 11.6802 14.2491 11.7664 13.8439Z" fill="black"/>
<path fill-rule="evenodd" clip-rule="evenodd" d="M4.75 9C4.75 8.58579 5.08579 8.25 5.5 8.25H8.97C9.38421 8.25 9.72 8.58579 9.72 9C9.72 9.41421 9.38421 9.75 8.97 9.75H5.5C5.08579 9.75 4.75 9.41421 4.75 9Z" fill="black"/>
<path fill-rule="evenodd" clip-rule="evenodd" d="M4.75 13C4.75 12.5858 5.08579 12.25 5.5 12.25H8.97C9.38421 12.25 9.72 12.5858 9.72 13C9.72 13.4142 9.38421 13.75 8.97 13.75H5.5C5.08579 13.75 4.75 13.4142 4.75 13Z" fill="black"/>
</svg>
