<svg width="24" height="24" viewBox="0 0 24 24" fill="none" xmlns="http://www.w3.org/2000/svg">
<path fill-rule="evenodd" clip-rule="evenodd" d="M17.91 2.75C16.8942 2.75 16.08 3.56421 16.08 4.58C16.08 5.55792 16.8321 6.34607 17.7842 6.40782C17.8641 6.40073 17.9459 6.40073 18.0258 6.40782C18.9762 6.34613 19.7316 5.559 19.74 4.57733C19.7386 3.57086 18.923 2.75 17.91 2.75ZM14.58 4.58C14.58 2.73579 16.0658 1.25 17.91 1.25C19.7561 1.25 21.24 2.74768 21.24 4.58V4.58536H21.24C21.2271 6.38428 19.8111 7.84488 18.0272 7.90951C17.9863 7.91099 17.9455 7.90913 17.905 7.90396C17.8645 7.90913 17.8237 7.91099 17.7828 7.90951C15.9998 7.84491 14.58 6.38403 14.58 4.58Z" fill="white"/>
<path fill-rule="evenodd" clip-rule="evenodd" d="M16.8107 8.85126C18.331 8.58492 20.0645 8.83884 21.3248 9.67508L21.3261 9.67597C22.1875 10.2502 22.7176 11.0823 22.7176 12.01C22.7176 12.9377 22.1875 13.7698 21.3261 14.344C20.0752 15.1813 18.3624 15.4343 16.8459 15.1797C16.4374 15.1111 16.1619 14.7243 16.2305 14.3158C16.299 13.9073 16.6858 13.6318 17.0943 13.7004C18.3173 13.9057 19.6238 13.6789 20.4927 13.0969L20.4941 13.096C21.0427 12.7302 21.2176 12.3223 21.2176 12.01C21.2176 11.6978 21.0429 11.2901 20.4948 10.9245C19.615 10.3411 18.2889 10.1151 17.0695 10.3288C16.6615 10.4002 16.2728 10.1274 16.2014 9.71942C16.1299 9.31142 16.4027 8.92273 16.8107 8.85126Z" fill="white"/>
<path fill-rule="evenodd" clip-rule="evenodd" d="M2.73 4.58C2.73 2.74768 4.21389 1.25 6.06 1.25C7.90421 1.25 9.39 2.73579 9.39 4.58C9.39 6.38403 7.97015 7.84491 6.18715 7.90951C6.14633 7.91099 6.10548 7.90913 6.065 7.90396C6.02451 7.90913 5.98366 7.91099 5.94284 7.90951C4.15891 7.84488 2.74286 6.38429 2.73001 4.58536L2.73 4.58ZM4.23 4.57733C4.23837 5.559 4.99378 6.34613 5.94424 6.40782C6.02411 6.40073 6.1059 6.40073 6.18576 6.40782C7.13786 6.34607 7.89 5.55792 7.89 4.58C7.89 3.56421 7.07578 2.75 6.06 2.75C5.047 2.75 4.23144 3.57087 4.23 4.57733Z" fill="white"/>
<path fill-rule="evenodd" clip-rule="evenodd" d="M3.47535 10.9245C4.35511 10.3411 5.68121 10.1151 6.90058 10.3288C7.30858 10.4002 7.69728 10.1274 7.76875 9.71942C7.84022 9.31142 7.56742 8.92273 7.15942 8.85126C5.6391 8.58492 3.90557 8.83884 2.64533 9.67508L2.64533 9.67508L2.64398 9.67597C1.78259 10.2502 1.2525 11.0823 1.2525 12.01C1.2525 12.9374 1.78231 13.7694 2.6433 14.3436C3.89426 15.1812 5.60741 15.4343 7.12418 15.1797C7.53267 15.1111 7.80823 14.7243 7.73965 14.3158C7.67107 13.9073 7.28432 13.6318 6.87583 13.7004C5.65286 13.9057 4.34636 13.6789 3.47738 13.0969L3.47603 13.096C2.92741 12.7302 2.7525 12.3223 2.7525 12.01C2.7525 11.6978 2.92727 11.2901 3.47535 10.9245Z" fill="white"/>
<path fill-rule="evenodd" clip-rule="evenodd" d="M11.9101 10.22C10.8943 10.22 10.0801 11.0342 10.0801 12.05C10.0801 13.0279 10.8322 13.8161 11.7843 13.8778C11.8653 13.8706 11.9483 13.8707 12.0292 13.8781C12.972 13.8241 13.7317 13.0343 13.7401 12.0473C13.7387 11.0409 12.9231 10.22 11.9101 10.22ZM8.58011 12.05C8.58011 10.2058 10.0659 8.72 11.9101 8.72C13.7562 8.72 15.2401 10.2177 15.2401 12.05V12.0554H15.2401C15.2273 13.8495 13.8148 15.3277 12.0218 15.3797C11.9828 15.3808 11.9438 15.3789 11.9051 15.374C11.8646 15.3791 11.8238 15.381 11.783 15.3795C9.99996 15.3149 8.58011 13.854 8.58011 12.05Z" fill="white"/>
<path fill-rule="evenodd" clip-rule="evenodd" d="M12.0038 16.235C13.1723 16.235 14.3811 16.526 15.326 17.156C16.1874 17.7302 16.7175 18.5623 16.7175 19.49C16.7175 20.4175 16.1876 21.2496 15.3264 21.8238C14.3774 22.4582 13.169 22.7525 12 22.7525C10.831 22.7525 9.62261 22.4582 8.67365 21.8238C7.81246 21.2496 7.2825 20.4176 7.2825 19.49C7.2825 18.5623 7.81259 17.7302 8.67398 17.156L8.67578 17.1548L8.67578 17.1548C9.62476 16.5261 10.835 16.235 12.0038 16.235ZM9.50514 18.4046C8.95722 18.7702 8.7825 19.1778 8.7825 19.49C8.7825 19.8023 8.95741 20.2102 9.50603 20.576L9.50693 20.5766C10.1579 21.0119 11.0592 21.2525 12 21.2525C12.9408 21.2525 13.8421 21.0119 14.4931 20.5766L14.494 20.576C15.0426 20.2102 15.2175 19.8023 15.2175 19.49C15.2175 19.1777 15.0426 18.7698 14.494 18.404C13.8489 17.974 12.9477 17.735 12.0038 17.735C11.0604 17.735 10.1561 17.9737 9.50514 18.4046Z" fill="white"/>
</svg>
